<mxfile host="app.diagrams.net" modified="2023-08-20T03:44:49.274Z" agent="Mozilla/5.0 (Windows NT 10.0; Win64; x64) AppleWebKit/537.36 (KHTML, like Gecko) Chrome/116.0.0.0 Safari/537.36" version="21.6.8" etag="_JpcFjAkv0oIrHamohAe" type="github">
  <diagram name="페이지-1" id="w9VMWOfXxLe6yywn_d1B">
    <mxGraphModel>
      <root>
        <mxCell id="0" />
        <mxCell id="1" parent="0" />
      </root>
    </mxGraphModel>
  </diagram>
</mxfile>
